PathFileType	4	(X/Y/Z)	5_1_48_p1_0-380_filt_butterworth.trc
DataRate	CameraRate	NumFrames	NumMarkers	Units	OrigDataRate	OrigDataStartFrame	OrigNumFrames
59.0	59.0	5	27	m	59.0	95	380
Frame#	Time	RHip			RKnee			RAnkle			RBigToe			RSmallToe			RHeel			LHip			LKnee			LAnkle			LBigToe			LSmallToe			LHeel			Neck			Head			Nose			RShoulder			RElbow			RWrist			RThumb			RIndex			RPinky			LShoulder			LElbow			LWrist			LThumb			LIndex			LPinky			
		X1	Y1	Z1	X2	Y2	Z2	X3	Y3	Z3	X4	Y4	Z4	X5	Y5	Z5	X6	Y6	Z6	X7	Y7	Z7	X8	Y8	Z8	X9	Y9	Z9	X10	Y10	Z10	X11	Y11	Z11	X12	Y12	Z12	X13	Y13	Z13	X14	Y14	Z14	X15	Y15	Z15	X16	Y16	Z16	X17	Y17	Z17	X18	Y18	Z18	X19	Y19	Z19	X20	Y20	Z20	X21	Y21	Z21	X22	Y22	Z22	X23	Y23	Z23	X24	Y24	Z24	X25	Y25	Z25	X26	Y26	Z26	X27	Y27	Z27	
95	1.6101694915254237	0.3647535233570772	0.8663720571448961	0.6667258886566775	0.37171599327586374	0.44160729120741304	0.7024283017539239	0.38357649251072656	0.019686405373636542	0.6566887461100683	0.386353361991872	-0.01001465221495039	0.5822863347525702	0.45432897094878344	-0.0028114919582589576	0.600105127570946	0.37069653378784423	-0.0318356717567385	0.701146543681494	0.14281384701187025	0.8607148388451662	0.6337205965348018	0.16697039581314163	0.42895111253152474	0.6575079341985914	0.1908650556110449	-0.022277383257738106	0.6889753130566703	0.2734134440266456	-0.04044400894521021	0.580001299419017	0.20102987730146848	-0.06550044934771142	0.6042654611168077	0.18272342299314642	-0.08460359818626903	0.7332222399644128	0.2399480472740288	1.372815804671866	0.640005906849381	0.24896861597898878	1.626735404868706	0.557597703201467	0.2606169075948863	1.4893089434481268	0.5265478958345686	0.4143972930277445	1.2892078649559624	0.6739120096159401	0.4542006797928084	1.0265698693831793	0.6842259737616405	0.4630052527252385	0.7726654776709304	0.6398290497400214	0.40790519889124616	0.6979548751628128	0.5180267056059115	0.4290799540186371	0.6448090275469149	0.5555566774802188	0.4636262171498754	0.6472135996919984	0.6014391287396568	0.0966136950497141	1.2757571012274078	0.6246125220676099	0.03992757449055017	1.0137176343533554	0.6260938841218671	0.05620490118756595	0.7441641060596399	0.5937323732709762	0.1258767938489026	0.6446689997381835	0.5450508289734244	0.09852747949937199	0.6365424610755122	0.5332988461252779	0.04660734948740335	0.638075548660334	0.5506260767033955	
96	1.6271186440677967	0.3648289615116935	0.8665152219743234	0.6666769504196406	0.37161388480278357	0.44201195572676993	0.7020336699671509	0.3838872215005809	0.01970353995107485	0.6572766829077114	0.38601329405776275	-0.008232682884351833	0.580276399685461	0.45323204458893923	-0.001389500103575081	0.5965568321548701	0.3704966510661021	-0.031839398690741955	0.7020087262036216	0.14364540076102142	0.8615068493763214	0.6322392781217515	0.1669195103921687	0.42963387642937445	0.6578396817377642	0.19088749441425007	-0.022309794215646023	0.6889901599918707	0.27259679589393404	-0.04028669428444039	0.5795626791450439	0.20091534879220674	-0.0635077509085023	0.6006495579879338	0.18258654551810005	-0.0846719628555603	0.7337355869865407	0.2399412317026719	1.3728007746738977	0.6399708182561401	0.24896628152827166	1.626739809950884	0.5575699291395109	0.26066245734204185	1.4888870313214848	0.5266518274959329	0.4143969612892676	1.2892020828666149	0.6738973266116034	0.45418752541988827	1.0275713869248102	0.6838449712047261	0.46290002480769654	0.772629548103936	0.6397684400785539	0.4080907593287071	0.6996494852799755	0.514463472553136	0.42801879868296344	0.6458227031765144	0.5531086227805977	0.4639026771819349	0.6481546442757281	0.5985964900008608	0.0964589885179072	1.2753363064421626	0.6225810504503281	0.03986246153918345	1.013674862416461	0.6259959335121297	0.05768379962330962	0.7437289028924621	0.5920310844311971	0.12602023086583014	0.6447925807328962	0.544893887301894	0.09868734528385395	0.6363845870796959	0.5335734372805911	0.04811768183575034	0.6380015396448498	0.5514704616646736	
97	1.6440677966101696	0.36482939625967903	0.8666876569065456	0.6666962194189494	0.37158690831953645	0.44258539931373814	0.7017706245321408	0.38418920685604885	0.01984021478574674	0.6580330125298154	0.3854015672694002	-0.00788141925090817	0.579802356357763	0.4521532311196781	8.263551963573479e-05	0.5926689390072395	0.3702807053914424	-0.032221894366577145	0.7033494625020176	0.14433163971553659	0.8623320215864867	0.6310164906758197	0.16687806069180963	0.43022224321570657	0.6581235678498185	0.1908989509636407	-0.022122034974109805	0.6889735000181276	0.2716324640603909	-0.040111160561264875	0.5791282563697044	0.20057147184598662	-0.062049998685145845	0.5971911080764102	0.18258606695656684	-0.08484805943226471	0.7344137508197994	0.2399319816674378	1.3727877084030278	0.6399513682599514	0.24896016922394407	1.6267439680168378	0.5575464158133827	0.2606867554552912	1.4886362206894608	0.5267053034197112	0.4144000152954877	1.2891929994377347	0.6738743078867471	0.4542999413441169	1.0282132406752809	0.6840217849274469	0.4629996263034737	0.7727383494104854	0.6392891388273143	0.4085734934508653	0.7014043724541358	0.5114053902337352	0.4271595041569654	0.646845181526882	0.5513561342329463	0.4641599807303699	0.648807122558774	0.5955599749310472	0.09633767896914841	1.274898913473703	0.6209820518783132	0.03952378322499892	1.0136287510131718	0.6258513600451069	0.0586552321488288	0.7430463643434541	0.5908456362332173	0.12612199182312392	0.6449281419741849	0.5447918960587259	0.09870060067551556	0.6362092889853713	0.533831203381298	0.049556534587521614	0.6381758648541218	0.5515936212514725	
98	1.6610169491525424	0.3647926719292903	0.8669077647913531	0.6667090633739703	0.371570814773146	0.44336446565163257	0.7015792237513482	0.3843971256796689	0.020108699750673115	0.6588518707027596	0.38486687180248536	-0.009125790755468308	0.5812330797405837	0.45139352569210434	0.000994730367883126	0.5895110414806375	0.36994963667268266	-0.03299658177398779	0.7051086540408285	0.14477659614961155	0.8629552328000246	0.6301717444259567	0.16684783686535462	0.43072093929394767	0.6583470282114019	0.1909054625730649	-0.021727088558416444	0.6889348376868915	0.270959162888929	-0.03994444877159882	0.5788350970630806	0.20008092750941558	-0.061343741342082495	0.5945839115126978	0.18266655364230233	-0.0850839297656227	0.7352572715171909	0.23991719354861724	1.3727765028006877	0.6399496605259656	0.24894932323931843	1.626751630485893	0.5575266255053011	0.26068744722956183	1.4885717017843378	0.5267021682871629	0.41441412001949907	1.289177884407312	0.6738887554450148	0.4545696813224466	1.0284891543375227	0.6850170997361994	0.4634189320729762	0.7731037788065627	0.6380466518960182	0.40927249268244714	0.7031628978934584	0.5090630529517253	0.4265608607017404	0.6479034493880498	0.5505050548110466	0.464305548989689	0.6491609252402504	0.5927172454967101	0.09626577061610858	1.2745076694762227	0.6200445372855619	0.03891366263761846	1.0135880105580168	0.6256313795404754	0.058970914789594056	0.7422177329427253	0.5904095328798868	0.12617554489314425	0.6450443766897362	0.5447542073787979	0.09855455045762644	0.636056269670087	0.5340952583580769	0.05065054528255079	0.6383024963574477	0.5516649068534951	
99	1.6779661016949152	0.36475093310569834	0.8671433913151109	0.6666851089090169	0.3714911675242179	0.4443292884845753	0.7013776143680192	0.38449342783033325	0.02042342097298455	0.6597002127116487	0.3846518094285216	-0.011532031206626853	0.5842681656554312	0.451198397803938	0.0009035474456323134	0.588585561523136	0.36961926976669407	-0.03402359071526673	0.7071482767864509	0.14498287488731362	0.8632593457957274	0.6297156582012005	0.16682811924197993	0.43117878392912884	0.658509784937473	0.19091530804912324	-0.02116903277883614	0.6888834471493439	0.27082048447547913	-0.039985417789655385	0.5790195293409774	0.19936160397807512	-0.0614119049413098	0.5935416990635896	0.18279078981212585	-0.08542892523186872	0.7362990118966812	0.23989619013687008	1.3727670231474784	0.639956604078664	0.24893473559362894	1.6267648070817387	0.5575076506598895	0.2606692022772611	1.4886248832961506	0.5266702455087786	0.4144568643386469	1.2891497929104643	0.6740286912033138	0.45497699754374366	1.028406102275764	0.6867873215672118	0.464134803323379	0.7737635946246301	0.63601989166164	0.41002594168800843	0.7048426031279249	0.5073442477346213	0.42630524478846443	0.6490120426084912	0.5505247777439443	0.46427456994150174	0.6493153626115789	0.5904766473153713	0.09624637686254948	1.2742345422238561	0.6197979552197155	0.038092899554064676	1.01356683407717	0.6253032914551409	0.05863126335217016	0.7413671611798164	0.5908732018519605	0.12618030813530187	0.6450300773693889	0.5447206754588351	0.09828186352703841	0.6359121665471162	0.5343475594277779	0.05106851126046237	0.6380985241373806	0.5523029329085659	
